<svg id="svg" version="1.1" xmlns="http://www.w3.org/2000/svg" xmlns:xlink="http://www.w3.org/1999/xlink" width="400" height="145.16908212560386" viewBox="0, 0, 400,145.16908212560386"><g id="svgg"><path id="path0" d="M25.713 40.685 C 24.610 41.109,23.814 42.019,23.433 43.290 C 23.077 44.480,23.119 98.810,23.477 100.813 C 24.354 105.709,27.337 108.753,32.500 110.020 C 34.492 110.508,89.273 110.426,91.167 109.931 C 98.251 108.081,102.167 102.441,102.167 94.090 L 102.167 93.083 103.542 93.139 C 123.692 93.957,137.121 77.690,131.943 58.737 C 129.294 49.040,120.868 42.126,109.917 40.661 C 106.138 40.156,27.031 40.179,25.713 40.685 M109.014 53.823 C 116.620 54.624,121.051 61.447,119.357 69.750 C 118.338 74.747,115.595 77.819,110.500 79.670 C 109.662 79.974,102.919 80.112,102.581 79.832 C 102.249 79.555,102.202 54.198,102.533 53.867 C 102.776 53.624,106.863 53.597,109.014 53.823 M76.448 56.921 C 77.738 57.211,77.771 57.223,79.582 58.103 C 85.863 61.153,87.542 69.769,83.104 76.167 C 81.643 78.272,72.941 87.188,66.187 93.500 C 62.822 96.645,62.789 96.655,61.077 95.035 C 60.524 94.512,59.215 93.296,58.169 92.333 C 57.122 91.371,56.144 90.471,55.995 90.333 C 45.109 80.310,42.066 76.857,40.892 73.191 C 37.931 63.947,42.471 56.836,51.333 56.836 C 55.211 56.836,59.545 58.644,62.073 61.316 C 62.628 61.903,62.861 61.953,63.188 61.556 C 63.372 61.333,64.765 60.155,65.583 59.531 C 65.747 59.406,67.618 58.305,68.230 57.973 C 70.300 56.851,74.016 56.376,76.448 56.921 " stroke="none" fill="#fbfbfb" fill-rule="evenodd"></path><path id="path1" d="M64.584 0.206 C 63.301 0.293,62.213 0.425,62.167 0.500 C 62.120 0.575,61.464 0.691,60.708 0.756 C 59.952 0.822,59.333 0.930,59.333 0.995 C 59.333 1.060,58.605 1.203,57.715 1.312 C 56.825 1.422,56.056 1.572,56.006 1.647 C 55.957 1.721,55.510 1.829,55.013 1.887 C 54.515 1.944,54.065 2.059,54.013 2.142 C 53.960 2.225,53.523 2.347,53.042 2.412 C 52.561 2.478,52.129 2.593,52.083 2.668 C 52.036 2.743,51.699 2.855,51.332 2.917 C 50.966 2.979,50.667 3.084,50.667 3.151 C 50.667 3.218,50.179 3.369,49.583 3.488 C 48.987 3.606,48.500 3.761,48.500 3.832 C 48.500 3.904,48.163 4.013,47.750 4.075 C 47.337 4.136,47.000 4.254,47.000 4.336 C 47.000 4.418,46.737 4.534,46.417 4.594 C 46.096 4.655,45.833 4.767,45.833 4.844 C 45.833 4.922,45.554 5.037,45.213 5.101 C 44.871 5.165,44.491 5.319,44.367 5.442 C 44.244 5.566,43.961 5.667,43.738 5.667 C 43.515 5.667,43.333 5.742,43.333 5.833 C 43.333 5.925,43.241 6.000,43.127 6.000 C 42.866 6.000,41.102 6.875,41.028 7.042 C 40.997 7.110,40.819 7.167,40.631 7.167 C 40.285 7.167,39.130 7.792,39.028 8.035 C 38.997 8.107,38.886 8.167,38.780 8.167 C 38.527 8.167,36.812 9.024,36.530 9.291 C 36.409 9.406,36.202 9.500,36.071 9.500 C 35.940 9.500,35.833 9.575,35.833 9.667 C 35.833 9.758,35.718 9.833,35.578 9.833 C 35.438 9.833,35.281 9.941,35.231 10.073 C 35.180 10.205,34.920 10.361,34.653 10.420 C 34.385 10.478,34.167 10.599,34.167 10.689 C 34.167 10.778,33.942 10.929,33.667 11.025 C 33.392 11.121,33.167 11.267,33.167 11.350 C 33.167 11.432,33.066 11.500,32.942 11.500 C 32.819 11.500,32.545 11.650,32.333 11.833 C 32.122 12.017,31.882 12.167,31.800 12.167 C 31.718 12.167,31.486 12.336,31.284 12.544 C 31.082 12.752,30.721 13.021,30.481 13.143 C 30.241 13.265,29.851 13.546,29.613 13.766 C 29.376 13.986,29.107 14.167,29.016 14.167 C 28.924 14.167,28.790 14.262,28.717 14.379 C 28.643 14.496,28.396 14.713,28.167 14.862 C 27.938 15.010,27.584 15.290,27.382 15.483 C 27.180 15.675,26.963 15.833,26.900 15.833 C 26.837 15.833,26.553 16.055,26.268 16.326 C 25.983 16.597,25.422 17.103,25.021 17.451 C 24.621 17.799,24.173 18.215,24.026 18.375 C 23.879 18.535,23.699 18.667,23.625 18.667 C 23.451 18.667,18.667 23.451,18.667 23.625 C 18.667 23.699,18.535 23.879,18.375 24.026 C 18.215 24.173,17.799 24.621,17.451 25.021 C 17.103 25.422,16.597 25.983,16.326 26.268 C 16.055 26.553,15.833 26.872,15.833 26.976 C 15.833 27.081,15.771 27.167,15.695 27.167 C 15.619 27.167,15.450 27.373,15.320 27.625 C 15.190 27.877,14.877 28.269,14.625 28.495 C 14.373 28.722,14.167 28.969,14.167 29.044 C 14.167 29.119,14.093 29.271,14.003 29.382 C 13.223 30.338,13.000 30.657,13.000 30.816 C 13.000 30.917,12.926 31.000,12.837 31.000 C 12.747 31.000,12.627 31.182,12.571 31.405 C 12.516 31.627,12.364 31.850,12.235 31.899 C 12.106 31.949,12.000 32.096,12.000 32.227 C 12.000 32.358,11.887 32.508,11.750 32.560 C 11.612 32.613,11.500 32.771,11.500 32.911 C 11.500 33.052,11.436 33.167,11.359 33.167 C 11.281 33.167,11.090 33.448,10.935 33.792 C 10.483 34.792,10.263 35.167,10.127 35.167 C 10.057 35.167,10.000 35.282,10.000 35.422 C 10.000 35.562,9.892 35.719,9.760 35.769 C 9.628 35.820,9.472 36.080,9.414 36.347 C 9.355 36.615,9.238 36.833,9.153 36.833 C 9.069 36.833,9.000 36.916,9.000 37.016 C 9.000 37.116,8.855 37.402,8.678 37.651 C 8.501 37.900,8.305 38.305,8.243 38.552 C 8.181 38.798,8.070 39.000,7.995 39.000 C 7.921 39.000,7.810 39.225,7.750 39.500 C 7.690 39.775,7.577 40.000,7.500 40.000 C 7.423 40.000,7.310 40.225,7.250 40.500 C 7.190 40.775,7.077 41.000,7.000 41.000 C 6.923 41.000,6.810 41.225,6.750 41.500 C 6.690 41.775,6.585 42.000,6.518 42.000 C 6.451 42.000,6.300 42.375,6.183 42.833 C 6.065 43.292,5.905 43.667,5.825 43.667 C 5.746 43.667,5.633 43.929,5.572 44.250 C 5.512 44.571,5.400 44.833,5.322 44.833 C 5.245 44.833,5.133 45.096,5.072 45.417 C 5.012 45.737,4.900 46.000,4.822 46.000 C 4.745 46.000,4.632 46.263,4.572 46.585 C 4.512 46.907,4.402 47.207,4.329 47.253 C 4.256 47.298,4.145 47.635,4.083 48.001 C 4.021 48.367,3.911 48.667,3.838 48.667 C 3.764 48.667,3.612 49.154,3.500 49.750 C 3.388 50.346,3.232 50.833,3.154 50.833 C 3.075 50.833,2.962 51.208,2.901 51.667 C 2.840 52.125,2.732 52.500,2.661 52.500 C 2.590 52.500,2.480 52.875,2.417 53.333 C 2.354 53.791,2.241 54.204,2.167 54.250 C 2.092 54.296,1.978 54.727,1.914 55.209 C 1.849 55.690,1.734 56.161,1.657 56.256 C 1.581 56.351,1.423 57.232,1.307 58.214 C 1.190 59.196,1.044 60.000,0.982 60.000 C 0.919 60.000,0.814 60.694,0.748 61.542 C 0.681 62.390,0.569 63.121,0.498 63.167 C -0.073 63.536,-0.072 81.472,0.499 81.833 C 0.571 81.879,0.685 82.648,0.752 83.542 C 0.818 84.435,0.927 85.167,0.993 85.167 C 1.059 85.167,1.209 85.935,1.327 86.875 C 1.444 87.815,1.602 88.660,1.676 88.754 C 1.751 88.848,1.864 89.317,1.927 89.796 C 1.991 90.275,2.101 90.667,2.172 90.667 C 2.243 90.667,2.353 91.117,2.417 91.667 C 2.481 92.217,2.594 92.667,2.668 92.667 C 2.743 92.667,2.855 92.967,2.917 93.333 C 2.979 93.700,3.098 94.000,3.181 94.000 C 3.265 94.000,3.333 94.190,3.333 94.421 C 3.333 94.911,4.190 97.557,4.375 97.639 C 4.444 97.669,4.500 97.870,4.500 98.085 C 4.500 98.300,4.601 98.577,4.724 98.701 C 4.848 98.824,5.001 99.204,5.065 99.546 C 5.129 99.887,5.245 100.167,5.322 100.167 C 5.400 100.167,5.512 100.429,5.572 100.750 C 5.633 101.071,5.746 101.333,5.824 101.333 C 5.903 101.333,6.057 101.708,6.167 102.167 C 6.277 102.625,6.428 103.000,6.503 103.000 C 6.579 103.000,6.690 103.225,6.750 103.500 C 6.810 103.775,6.923 104.000,7.000 104.000 C 7.077 104.000,7.190 104.225,7.250 104.500 C 7.310 104.775,7.429 105.000,7.513 105.000 C 7.598 105.000,7.667 105.107,7.667 105.238 C 7.667 105.369,7.768 105.577,7.892 105.701 C 8.015 105.825,8.214 106.224,8.332 106.588 C 8.451 106.952,8.594 107.287,8.649 107.333 C 8.815 107.471,9.166 108.053,9.376 108.542 C 9.484 108.794,9.624 109.000,9.685 109.000 C 9.747 109.000,9.844 109.188,9.902 109.417 C 9.959 109.646,10.080 109.833,10.170 109.833 C 10.260 109.833,10.333 109.934,10.333 110.058 C 10.333 110.181,10.483 110.455,10.667 110.667 C 10.850 110.878,11.000 111.154,11.000 111.281 C 11.000 111.407,11.106 111.551,11.235 111.601 C 11.364 111.650,11.517 111.879,11.575 112.110 C 11.684 112.543,11.790 112.699,12.511 113.483 C 12.746 113.739,13.037 114.187,13.158 114.480 C 13.279 114.772,13.546 115.143,13.750 115.304 C 13.955 115.464,14.172 115.755,14.234 115.949 C 14.296 116.144,14.456 116.345,14.590 116.396 C 14.724 116.447,14.833 116.604,14.833 116.745 C 14.833 116.885,14.890 117.001,14.958 117.001 C 15.027 117.002,15.270 117.277,15.499 117.612 C 15.727 117.947,16.121 118.429,16.374 118.681 C 16.626 118.934,16.833 119.205,16.833 119.283 C 16.833 119.362,17.065 119.629,17.347 119.877 C 17.630 120.125,18.048 120.603,18.277 120.940 C 18.505 121.277,18.922 121.747,19.203 121.985 C 19.484 122.222,19.834 122.556,19.982 122.726 C 20.329 123.127,22.040 124.838,22.441 125.185 C 22.611 125.332,22.944 125.683,23.182 125.964 C 23.420 126.245,23.890 126.661,24.227 126.890 C 24.564 127.119,25.042 127.537,25.290 127.820 C 25.538 128.102,25.805 128.333,25.883 128.333 C 25.962 128.333,26.251 128.558,26.526 128.833 C 26.801 129.108,27.094 129.333,27.178 129.333 C 27.262 129.333,27.537 129.545,27.790 129.805 C 28.043 130.064,28.381 130.324,28.542 130.383 C 28.702 130.442,28.833 130.562,28.833 130.650 C 28.833 130.739,28.999 130.864,29.202 130.928 C 29.405 130.992,29.702 131.212,29.863 131.417 C 30.024 131.621,30.402 131.888,30.703 132.009 C 31.004 132.131,31.310 132.329,31.383 132.449 C 31.457 132.569,31.591 132.667,31.682 132.667 C 31.773 132.667,31.938 132.743,32.049 132.836 C 32.847 133.510,33.076 133.667,33.258 133.667 C 33.371 133.667,33.508 133.779,33.560 133.917 C 33.613 134.054,33.760 134.167,33.886 134.167 C 34.012 134.167,34.289 134.317,34.500 134.500 C 34.711 134.683,34.985 134.833,35.109 134.833 C 35.232 134.833,35.333 134.907,35.333 134.997 C 35.333 135.087,35.521 135.207,35.750 135.265 C 35.979 135.322,36.167 135.420,36.167 135.482 C 36.167 135.543,36.373 135.683,36.625 135.793 C 36.877 135.903,37.383 136.177,37.750 136.403 C 38.117 136.629,38.623 136.862,38.875 136.920 C 39.127 136.979,39.333 137.094,39.333 137.177 C 39.333 137.259,39.521 137.374,39.750 137.432 C 39.979 137.489,40.167 137.597,40.167 137.671 C 40.167 137.746,40.392 137.856,40.667 137.917 C 40.942 137.977,41.167 138.096,41.167 138.180 C 41.167 138.264,41.246 138.333,41.342 138.333 C 41.439 138.333,41.836 138.478,42.223 138.654 C 42.611 138.831,43.132 139.027,43.381 139.089 C 43.630 139.152,43.833 139.266,43.833 139.344 C 43.833 139.421,44.096 139.534,44.417 139.594 C 44.737 139.655,45.000 139.770,45.000 139.850 C 45.000 139.930,45.300 140.044,45.667 140.103 C 46.033 140.161,46.333 140.266,46.333 140.336 C 46.333 140.406,46.596 140.512,46.917 140.572 C 47.237 140.633,47.500 140.747,47.500 140.826 C 47.500 140.906,47.800 141.021,48.166 141.083 C 48.532 141.145,48.869 141.256,48.914 141.329 C 48.960 141.403,49.485 141.560,50.082 141.679 C 50.678 141.797,51.167 141.953,51.167 142.025 C 51.167 142.097,51.542 142.205,52.000 142.266 C 52.458 142.327,52.833 142.435,52.833 142.506 C 52.833 142.577,53.208 142.687,53.667 142.750 C 54.125 142.813,54.500 142.924,54.500 142.996 C 54.500 143.069,54.987 143.180,55.583 143.244 C 56.179 143.308,56.667 143.419,56.667 143.491 C 56.667 143.564,57.492 143.721,58.500 143.841 C 59.508 143.961,60.333 144.112,60.333 144.176 C 60.333 144.241,61.065 144.348,61.958 144.415 C 62.852 144.482,63.622 144.598,63.669 144.673 C 63.983 145.174,81.167 145.180,81.497 144.680 C 81.545 144.608,82.294 144.497,83.162 144.432 C 84.031 144.368,84.781 144.260,84.829 144.191 C 84.877 144.123,85.703 143.970,86.665 143.853 C 87.627 143.736,88.452 143.580,88.498 143.507 C 88.545 143.433,89.052 143.320,89.625 143.254 C 90.198 143.188,90.667 143.076,90.667 143.005 C 90.667 142.934,91.042 142.827,91.500 142.766 C 91.958 142.705,92.333 142.592,92.333 142.516 C 92.333 142.439,92.708 142.327,93.167 142.266 C 93.625 142.205,94.000 142.097,94.000 142.025 C 94.000 141.953,94.488 141.797,95.085 141.679 C 95.682 141.560,96.207 141.403,96.252 141.329 C 96.298 141.256,96.635 141.145,97.001 141.083 C 97.367 141.021,97.667 140.902,97.667 140.819 C 97.667 140.735,97.849 140.667,98.071 140.667 C 98.294 140.667,98.577 140.566,98.701 140.442 C 98.824 140.319,99.204 140.165,99.546 140.101 C 99.887 140.037,100.167 139.922,100.167 139.844 C 100.167 139.767,100.429 139.655,100.750 139.594 C 101.071 139.534,101.333 139.427,101.333 139.357 C 101.333 139.287,101.708 139.134,102.167 139.016 C 102.625 138.899,103.000 138.740,103.000 138.665 C 103.000 138.589,103.225 138.477,103.500 138.417 C 103.775 138.356,104.000 138.244,104.000 138.167 C 104.000 138.090,104.225 137.977,104.500 137.917 C 104.775 137.856,105.000 137.746,105.000 137.671 C 105.000 137.597,105.188 137.489,105.417 137.432 C 105.646 137.374,105.833 137.263,105.833 137.185 C 105.833 137.107,106.171 136.949,106.583 136.833 C 106.996 136.718,107.333 136.564,107.333 136.492 C 107.333 136.419,107.552 136.312,107.819 136.253 C 108.087 136.194,108.347 136.038,108.398 135.906 C 108.448 135.775,108.604 135.667,108.745 135.667 C 108.885 135.667,109.000 135.600,109.000 135.518 C 109.000 135.436,109.197 135.320,109.437 135.260 C 109.677 135.200,109.974 135.060,110.098 134.950 C 110.635 134.470,110.831 134.337,111.358 134.096 C 112.089 133.761,112.548 133.465,113.317 132.830 C 113.537 132.649,113.811 132.500,113.924 132.500 C 114.038 132.500,114.174 132.387,114.227 132.250 C 114.280 132.112,114.426 132.000,114.552 132.000 C 114.678 132.000,114.917 131.850,115.083 131.667 C 115.249 131.483,115.452 131.333,115.534 131.333 C 115.616 131.333,115.856 131.146,116.069 130.917 C 116.281 130.687,116.536 130.500,116.636 130.500 C 116.735 130.500,116.877 130.404,116.950 130.288 C 117.023 130.171,117.271 129.954,117.500 129.805 C 117.729 129.656,118.082 129.377,118.285 129.184 C 118.487 128.991,118.706 128.833,118.772 128.833 C 118.837 128.833,119.214 128.496,119.609 128.083 C 120.004 127.671,120.395 127.333,120.477 127.333 C 120.559 127.333,121.227 126.752,121.962 126.042 C 122.697 125.331,123.674 124.412,124.134 124.000 C 124.594 123.587,125.016 123.081,125.072 122.875 C 125.128 122.669,125.236 122.500,125.314 122.500 C 125.495 122.500,126.981 121.033,127.417 120.425 C 127.600 120.169,127.994 119.717,128.292 119.421 C 128.590 119.125,128.833 118.830,128.833 118.766 C 128.833 118.701,129.058 118.409,129.333 118.116 C 129.607 117.823,129.832 117.533,129.833 117.471 C 129.833 117.409,130.058 117.134,130.333 116.859 C 130.608 116.584,130.833 116.282,130.833 116.188 C 130.833 116.094,130.927 115.957,131.042 115.883 C 131.291 115.724,131.896 114.867,132.048 114.458 C 132.107 114.298,132.234 114.167,132.328 114.167 C 132.423 114.167,132.500 114.053,132.500 113.915 C 132.500 113.777,132.650 113.535,132.833 113.378 C 133.017 113.221,133.167 112.997,133.167 112.880 C 133.167 112.762,133.242 112.667,133.333 112.667 C 133.425 112.667,133.500 112.558,133.500 112.425 C 133.500 112.292,133.594 112.123,133.708 112.050 C 133.900 111.927,134.282 111.305,134.734 110.376 C 134.835 110.171,134.973 110.002,135.042 110.001 C 135.110 110.001,135.167 109.885,135.167 109.745 C 135.167 109.604,135.275 109.448,135.406 109.398 C 135.538 109.347,135.694 109.087,135.753 108.819 C 135.812 108.552,135.923 108.333,136.000 108.333 C 136.077 108.333,136.188 108.115,136.247 107.847 C 136.306 107.580,136.455 107.322,136.578 107.275 C 136.701 107.228,136.852 106.959,136.914 106.678 C 136.976 106.397,137.090 106.167,137.167 106.167 C 137.244 106.167,137.356 105.942,137.417 105.667 C 137.477 105.392,137.590 105.167,137.667 105.167 C 137.744 105.167,137.856 104.942,137.917 104.667 C 137.977 104.392,138.090 104.167,138.167 104.167 C 138.244 104.167,138.356 103.942,138.417 103.667 C 138.477 103.392,138.596 103.167,138.680 103.167 C 138.764 103.167,138.834 103.035,138.835 102.875 C 138.836 102.715,139.021 102.208,139.246 101.750 C 139.472 101.292,139.659 100.785,139.661 100.625 C 139.664 100.465,139.738 100.333,139.826 100.333 C 139.913 100.333,140.034 100.071,140.094 99.750 C 140.155 99.429,140.267 99.167,140.344 99.167 C 140.422 99.167,140.534 98.904,140.594 98.583 C 140.655 98.263,140.761 98.000,140.831 98.000 C 140.900 98.000,141.008 97.683,141.070 97.297 C 141.132 96.910,141.258 96.546,141.351 96.489 C 141.444 96.432,141.607 95.923,141.715 95.359 C 141.822 94.795,141.963 94.333,142.028 94.333 C 142.093 94.333,142.197 93.996,142.259 93.583 C 142.321 93.171,142.429 92.833,142.500 92.833 C 142.570 92.833,142.680 92.421,142.743 91.917 C 142.806 91.413,142.923 91.000,143.004 91.000 C 143.084 91.000,143.201 90.550,143.263 90.000 C 143.325 89.450,143.433 89.000,143.503 89.000 C 143.572 89.000,143.725 88.250,143.842 87.333 C 143.958 86.417,144.109 85.667,144.176 85.667 C 144.243 85.667,144.352 84.973,144.419 84.125 C 144.485 83.277,144.600 82.545,144.673 82.499 C 144.746 82.452,144.860 81.346,144.926 80.040 C 144.993 78.735,145.111 77.667,145.190 77.667 C 145.269 77.667,145.333 75.342,145.333 72.500 C 145.333 69.658,145.269 67.333,145.190 67.333 C 145.111 67.333,144.993 66.265,144.926 64.960 C 144.860 63.654,144.745 62.548,144.671 62.501 C 144.597 62.455,144.481 61.760,144.415 60.958 C 144.348 60.156,144.242 59.500,144.178 59.500 C 144.114 59.500,143.972 58.735,143.862 57.800 C 143.752 56.865,143.596 56.059,143.515 56.009 C 143.434 55.958,143.313 55.485,143.248 54.958 C 143.182 54.431,143.071 54.000,143.000 54.000 C 142.929 54.000,142.820 53.589,142.758 53.086 C 142.695 52.583,142.580 52.133,142.503 52.085 C 142.426 52.037,142.312 51.699,142.250 51.332 C 142.188 50.966,142.083 50.667,142.016 50.667 C 141.949 50.667,141.798 50.179,141.679 49.583 C 141.561 48.988,141.405 48.500,141.334 48.500 C 141.263 48.500,141.154 48.162,141.092 47.750 C 141.030 47.337,140.913 47.000,140.831 47.000 C 140.749 47.000,140.633 46.737,140.572 46.417 C 140.512 46.096,140.406 45.833,140.337 45.833 C 140.267 45.833,140.168 45.570,140.115 45.248 C 140.063 44.927,139.903 44.546,139.760 44.403 C 139.617 44.260,139.500 43.961,139.500 43.738 C 139.500 43.515,139.425 43.333,139.333 43.333 C 139.242 43.333,139.167 43.245,139.167 43.136 C 139.167 42.830,137.383 39.027,137.149 38.833 C 137.094 38.787,136.834 38.281,136.573 37.708 C 136.311 37.135,136.038 36.667,135.965 36.667 C 135.893 36.667,135.833 36.560,135.833 36.429 C 135.833 36.298,135.739 36.091,135.623 35.970 C 135.507 35.849,135.319 35.563,135.205 35.333 C 135.091 35.104,134.809 34.617,134.579 34.250 C 134.348 33.883,134.109 33.471,134.047 33.333 C 133.984 33.196,133.872 33.008,133.797 32.917 C 133.722 32.825,133.512 32.570,133.330 32.349 C 133.149 32.129,133.000 31.856,133.000 31.742 C 133.000 31.629,132.887 31.492,132.750 31.440 C 132.612 31.387,132.500 31.263,132.500 31.165 C 132.500 31.067,132.350 30.825,132.167 30.628 C 131.983 30.431,131.833 30.180,131.833 30.070 C 131.833 29.959,131.721 29.826,131.583 29.773 C 131.446 29.720,131.333 29.590,131.333 29.483 C 131.333 29.376,131.146 29.114,130.917 28.902 C 130.688 28.690,130.500 28.448,130.500 28.366 C 130.500 28.284,130.294 27.991,130.042 27.717 C 129.790 27.442,129.396 26.965,129.167 26.657 C 128.938 26.349,128.394 25.725,127.958 25.270 C 127.523 24.815,127.167 24.376,127.167 24.293 C 127.167 24.055,121.066 18.044,120.709 17.930 C 120.532 17.874,120.297 17.660,120.187 17.454 C 120.077 17.249,119.709 16.894,119.370 16.665 C 119.031 16.437,118.549 16.044,118.299 15.792 C 118.049 15.540,117.765 15.333,117.667 15.333 C 117.569 15.333,117.447 15.224,117.396 15.090 C 117.345 14.956,117.148 14.797,116.959 14.737 C 116.769 14.677,116.449 14.449,116.247 14.231 C 116.044 14.012,115.791 13.833,115.684 13.833 C 115.577 13.833,115.449 13.728,115.399 13.599 C 115.350 13.469,115.090 13.273,114.821 13.162 C 114.553 13.051,114.333 12.894,114.333 12.813 C 114.333 12.733,114.218 12.667,114.078 12.667 C 113.938 12.667,113.780 12.554,113.727 12.417 C 113.674 12.279,113.561 12.167,113.475 12.167 C 113.330 12.167,112.350 11.533,112.167 11.320 C 112.121 11.267,111.840 11.117,111.542 10.988 C 111.244 10.858,111.000 10.695,111.000 10.626 C 111.000 10.557,110.885 10.500,110.745 10.500 C 110.604 10.500,110.448 10.392,110.398 10.260 C 110.347 10.128,110.087 9.972,109.819 9.914 C 109.552 9.855,109.333 9.743,109.333 9.665 C 109.333 9.586,109.168 9.470,108.966 9.406 C 108.764 9.342,108.496 9.187,108.371 9.061 C 108.245 8.936,108.045 8.833,107.925 8.833 C 107.805 8.833,107.618 8.726,107.509 8.594 C 107.400 8.462,107.090 8.306,106.822 8.247 C 106.553 8.188,106.332 8.090,106.330 8.028 C 106.328 7.967,105.917 7.729,105.417 7.500 C 104.916 7.271,104.505 7.027,104.503 6.958 C 104.502 6.890,104.421 6.833,104.324 6.833 C 104.227 6.833,103.831 6.689,103.443 6.512 C 103.056 6.336,102.535 6.140,102.286 6.077 C 102.037 6.015,101.833 5.900,101.833 5.823 C 101.833 5.745,101.571 5.633,101.250 5.572 C 100.929 5.512,100.667 5.397,100.667 5.317 C 100.667 5.236,100.367 5.123,100.000 5.064 C 99.633 5.005,99.333 4.898,99.333 4.825 C 99.333 4.753,99.090 4.640,98.792 4.576 C 98.494 4.511,98.212 4.410,98.167 4.351 C 98.055 4.208,95.410 3.333,95.088 3.333 C 94.948 3.333,94.833 3.268,94.833 3.188 C 94.833 3.108,94.458 2.993,94.000 2.932 C 93.542 2.872,93.167 2.759,93.167 2.682 C 93.167 2.606,92.795 2.494,92.340 2.433 C 91.886 2.373,91.473 2.258,91.423 2.177 C 91.374 2.097,90.939 1.978,90.458 1.914 C 89.977 1.849,89.508 1.741,89.417 1.673 C 89.214 1.523,87.050 1.167,86.343 1.167 C 86.063 1.167,85.833 1.099,85.833 1.017 C 85.833 0.935,85.215 0.814,84.458 0.747 C 83.702 0.681,83.046 0.571,83.000 0.502 C 82.711 0.068,69.746 -0.140,64.584 0.206 M365.852 34.689 C 364.900 34.767,364.037 34.898,363.935 34.980 C 363.833 35.062,363.281 35.183,362.708 35.248 C 362.135 35.313,361.667 35.427,361.667 35.502 C 361.667 35.576,361.367 35.688,361.000 35.750 C 360.633 35.812,360.333 35.928,360.333 36.007 C 360.333 36.087,360.052 36.203,359.708 36.266 C 359.365 36.330,359.046 36.427,359.000 36.482 C 358.954 36.538,358.467 36.808,357.917 37.083 C 357.367 37.358,356.892 37.640,356.861 37.708 C 356.831 37.777,356.702 37.833,356.575 37.833 C 356.449 37.833,356.265 37.983,356.167 38.167 C 356.069 38.350,355.910 38.500,355.815 38.500 C 355.719 38.500,355.430 38.706,355.172 38.958 C 354.914 39.210,354.563 39.537,354.393 39.684 C 353.807 40.191,352.833 41.304,352.833 41.467 C 352.833 41.557,352.721 41.674,352.583 41.727 C 352.446 41.780,352.333 41.938,352.333 42.078 C 352.333 42.218,352.260 42.333,352.170 42.333 C 352.080 42.333,351.959 42.521,351.902 42.750 C 351.844 42.979,351.742 43.167,351.675 43.167 C 351.608 43.167,351.454 43.467,351.333 43.833 C 351.212 44.200,351.051 44.500,350.975 44.500 C 350.899 44.500,350.789 44.800,350.731 45.167 C 350.672 45.533,350.563 45.833,350.489 45.833 C 350.415 45.833,350.301 46.190,350.237 46.625 C 350.173 47.060,350.051 47.461,349.967 47.516 C 349.882 47.571,349.769 48.452,349.715 49.474 C 349.661 50.497,349.553 51.333,349.475 51.333 C 349.397 51.333,349.333 52.458,349.333 53.833 L 349.333 56.333 346.250 56.333 C 344.554 56.333,343.167 56.399,343.167 56.479 C 343.167 56.558,342.792 56.673,342.333 56.734 C 341.875 56.795,341.500 56.909,341.500 56.988 C 341.500 57.066,341.313 57.178,341.083 57.235 C 340.854 57.293,340.667 57.413,340.667 57.503 C 340.667 57.593,340.569 57.667,340.451 57.667 C 340.332 57.667,340.050 57.891,339.826 58.166 C 339.601 58.441,339.285 58.827,339.125 59.025 C 338.965 59.223,338.833 59.517,338.833 59.678 C 338.833 59.840,338.740 60.004,338.625 60.042 C 338.347 60.134,338.326 64.621,338.603 64.798 C 338.705 64.863,338.843 65.092,338.910 65.307 C 339.074 65.833,340.484 67.253,341.002 67.415 C 341.230 67.487,341.464 67.618,341.521 67.708 C 341.722 68.019,343.102 68.152,346.208 68.159 L 349.333 68.167 349.333 86.417 C 349.333 96.542,349.397 104.667,349.477 104.667 C 349.556 104.667,349.662 105.135,349.711 105.708 C 349.800 106.738,350.213 107.833,350.512 107.833 C 350.597 107.833,350.667 107.929,350.667 108.046 C 350.667 108.163,350.798 108.382,350.958 108.533 C 351.119 108.683,351.471 109.040,351.741 109.325 C 352.011 109.610,352.405 109.887,352.616 109.940 C 352.827 109.993,353.000 110.095,353.000 110.168 C 353.000 110.342,354.899 110.667,355.917 110.667 C 356.982 110.667,358.833 110.338,358.833 110.150 C 358.833 110.067,358.948 110.000,359.089 110.000 C 359.229 110.000,359.384 109.894,359.434 109.765 C 359.484 109.636,359.706 109.484,359.929 109.429 C 360.151 109.373,360.333 109.261,360.333 109.181 C 360.333 109.101,360.520 108.858,360.747 108.642 C 360.975 108.427,361.162 108.156,361.164 108.042 C 361.165 107.927,361.234 107.833,361.315 107.833 C 361.397 107.833,361.515 107.628,361.578 107.377 C 361.642 107.126,361.781 106.866,361.888 106.799 C 362.035 106.709,362.094 101.914,362.128 87.434 L 362.172 68.190 367.878 68.137 L 373.583 68.083 374.250 67.672 C 374.617 67.446,374.942 67.202,374.972 67.130 C 375.003 67.059,375.105 67.000,375.199 67.000 C 375.444 67.000,376.160 66.289,376.164 66.042 C 376.165 65.927,376.223 65.833,376.292 65.832 C 377.223 65.824,377.601 61.029,376.792 59.471 C 376.575 59.051,374.901 57.333,374.710 57.333 C 374.655 57.333,374.483 57.219,374.328 57.078 C 374.173 56.938,373.660 56.777,373.190 56.722 C 372.719 56.666,372.333 56.556,372.333 56.477 C 372.333 56.398,370.046 56.333,367.250 56.333 L 362.167 56.333 362.167 53.833 C 362.167 52.458,362.232 51.333,362.312 51.333 C 362.392 51.333,362.508 50.883,362.570 50.333 C 362.632 49.783,362.739 49.333,362.808 49.333 C 362.877 49.333,363.034 49.054,363.158 48.712 C 363.446 47.915,364.582 46.779,365.379 46.491 C 365.721 46.367,366.000 46.213,366.000 46.148 C 366.000 46.083,366.619 45.979,367.375 45.917 C 368.713 45.808,369.415 45.877,372.250 46.402 C 374.374 46.795,377.167 46.650,377.167 46.147 C 377.167 46.066,377.252 46.000,377.356 46.000 C 377.460 46.000,377.891 45.642,378.314 45.204 C 380.745 42.691,380.155 37.146,377.363 36.259 C 377.163 36.196,377.000 36.080,377.000 36.002 C 377.000 35.924,376.775 35.810,376.500 35.750 C 376.225 35.690,376.000 35.575,376.000 35.494 C 376.000 35.414,375.719 35.297,375.375 35.234 C 375.031 35.170,374.710 35.057,374.660 34.982 C 374.388 34.566,369.380 34.399,365.852 34.689 M387.174 36.856 C 386.674 36.939,386.224 37.070,386.174 37.148 C 386.124 37.225,385.898 37.346,385.672 37.417 C 385.163 37.576,384.238 38.510,384.076 39.029 C 384.010 39.242,383.871 39.470,383.769 39.536 C 383.643 39.617,383.583 40.721,383.583 43.000 C 383.583 45.279,383.643 46.383,383.769 46.464 C 383.871 46.530,384.010 46.758,384.076 46.971 C 384.282 47.630,385.225 48.456,386.013 48.667 C 386.418 48.776,386.895 48.942,387.072 49.036 C 387.494 49.260,393.176 49.255,393.315 49.030 C 393.371 48.939,393.717 48.811,394.084 48.747 C 395.606 48.480,396.505 47.379,396.631 45.631 C 396.675 45.009,396.776 44.500,396.856 44.500 C 396.935 44.500,397.000 43.750,397.000 42.833 C 397.000 41.833,396.933 41.167,396.833 41.167 C 396.742 41.167,396.666 40.885,396.666 40.542 C 396.661 37.391,392.858 35.914,387.174 36.856 M221.833 38.167 C 221.833 38.258,221.642 38.333,221.408 38.333 C 221.012 38.333,219.840 38.871,219.411 39.250 C 219.307 39.342,219.012 39.567,218.756 39.750 C 218.500 39.933,215.376 42.990,211.814 46.542 C 208.252 50.094,205.290 53.000,205.232 53.000 C 205.174 53.000,202.368 55.756,198.997 59.125 C 195.625 62.494,192.615 65.487,192.308 65.777 C 192.001 66.066,191.449 66.629,191.080 67.027 C 190.712 67.424,190.132 67.959,189.792 68.214 C 189.452 68.469,188.385 69.471,187.420 70.440 L 185.667 72.202 185.667 57.518 C 185.667 49.065,185.604 42.833,185.519 42.833 C 185.437 42.833,185.321 42.571,185.261 42.250 C 185.201 41.929,185.080 41.667,184.992 41.667 C 184.905 41.667,184.832 41.573,184.831 41.458 C 184.826 41.099,183.349 39.655,182.786 39.459 C 182.491 39.356,182.151 39.174,182.030 39.053 C 181.909 38.932,181.515 38.833,181.155 38.833 C 180.795 38.833,180.500 38.758,180.500 38.667 C 180.500 38.569,179.944 38.500,179.167 38.500 C 178.433 38.500,177.833 38.565,177.833 38.645 C 177.833 38.725,177.487 38.829,177.063 38.877 C 176.639 38.925,176.244 39.041,176.186 39.135 C 176.128 39.230,175.868 39.360,175.610 39.425 C 175.351 39.490,175.100 39.646,175.052 39.771 C 175.004 39.897,174.889 40.000,174.797 40.000 C 174.562 40.000,173.840 40.710,173.836 40.944 C 173.835 41.051,173.774 41.164,173.701 41.194 C 173.629 41.225,173.385 41.550,173.160 41.917 L 172.750 42.583 172.699 74.083 C 172.648 105.134,172.679 107.333,173.161 107.333 C 173.236 107.333,173.344 107.519,173.401 107.747 C 173.572 108.429,174.926 109.628,176.186 110.214 C 177.340 110.751,181.808 110.727,182.161 110.182 C 182.210 110.107,182.419 109.992,182.625 109.928 C 182.831 109.864,183.000 109.741,183.000 109.655 C 183.000 109.570,183.084 109.500,183.186 109.500 C 183.389 109.500,184.667 108.281,184.667 108.088 C 184.667 108.022,184.817 107.779,185.000 107.545 C 185.183 107.312,185.333 106.944,185.333 106.728 C 185.333 106.511,185.408 106.333,185.500 106.333 C 185.609 106.333,185.667 103.230,185.667 97.358 L 185.667 88.382 186.075 87.941 C 186.300 87.698,186.532 87.500,186.590 87.500 C 186.715 87.500,187.824 86.486,188.564 85.695 C 188.850 85.389,189.338 84.902,189.650 84.611 C 190.773 83.564,191.833 82.452,191.833 82.322 C 191.833 82.249,191.994 82.138,192.191 82.076 C 192.387 82.013,193.136 81.370,193.855 80.645 L 195.161 79.328 195.497 79.664 C 195.682 79.849,195.833 80.077,195.833 80.172 C 195.833 80.266,195.943 80.386,196.077 80.437 C 196.211 80.489,196.371 80.693,196.431 80.890 C 196.492 81.088,196.643 81.362,196.766 81.500 C 196.890 81.637,197.211 81.990,197.481 82.283 C 197.751 82.576,198.019 82.963,198.076 83.143 C 198.133 83.322,198.289 83.511,198.423 83.563 C 198.557 83.614,198.667 83.767,198.667 83.903 C 198.667 84.039,198.761 84.210,198.877 84.283 C 198.992 84.357,199.273 84.697,199.502 85.041 C 199.730 85.384,199.973 85.665,200.042 85.666 C 200.110 85.666,200.167 85.762,200.167 85.880 C 200.167 85.997,200.373 86.278,200.625 86.505 C 200.877 86.731,201.190 87.123,201.320 87.375 C 201.450 87.627,201.619 87.833,201.695 87.833 C 201.771 87.833,201.833 87.921,201.833 88.028 C 201.833 88.135,201.944 88.341,202.079 88.486 C 203.041 89.522,203.274 89.814,203.455 90.214 C 203.567 90.463,203.736 90.667,203.830 90.667 C 203.923 90.667,204.000 90.768,204.000 90.891 C 204.000 91.014,204.150 91.251,204.333 91.417 C 204.517 91.583,204.667 91.785,204.667 91.867 C 204.667 91.949,204.854 92.190,205.083 92.402 C 205.313 92.614,205.501 92.855,205.503 92.936 C 205.504 93.017,205.692 93.260,205.920 93.476 C 206.147 93.692,206.333 93.939,206.333 94.025 C 206.333 94.112,206.521 94.356,206.750 94.569 C 206.979 94.781,207.167 95.023,207.167 95.107 C 207.167 95.191,207.298 95.383,207.458 95.535 C 207.848 95.902,208.033 96.138,208.581 96.967 C 208.836 97.352,209.109 97.667,209.189 97.667 C 209.268 97.667,209.333 97.768,209.333 97.891 C 209.333 98.014,209.483 98.251,209.667 98.417 C 209.850 98.583,210.000 98.785,210.000 98.867 C 210.000 98.949,210.188 99.190,210.417 99.402 C 210.646 99.614,210.833 99.860,210.833 99.948 C 210.833 100.036,211.021 100.285,211.250 100.500 C 211.479 100.715,211.667 100.957,211.667 101.037 C 211.667 101.117,211.841 101.348,212.054 101.550 C 212.267 101.751,212.490 102.048,212.549 102.208 C 212.608 102.369,212.724 102.500,212.808 102.500 C 212.891 102.500,213.053 102.725,213.167 103.000 C 213.281 103.275,213.442 103.500,213.525 103.500 C 213.609 103.500,213.725 103.631,213.784 103.792 C 213.844 103.952,214.057 104.240,214.260 104.432 C 214.462 104.624,214.679 104.943,214.742 105.141 C 214.804 105.338,214.928 105.500,215.016 105.500 C 215.105 105.500,215.227 105.629,215.287 105.787 C 215.348 105.945,215.599 106.271,215.846 106.513 C 216.093 106.754,216.347 107.113,216.409 107.309 C 216.471 107.506,216.595 107.667,216.683 107.667 C 216.771 107.667,216.889 107.785,216.944 107.929 C 217.128 108.407,218.623 109.816,219.065 109.927 C 219.304 109.987,219.500 110.097,219.500 110.171 C 219.500 110.366,221.040 110.667,222.036 110.667 C 223.105 110.667,225.000 110.345,225.000 110.163 C 225.000 110.088,225.225 109.977,225.500 109.917 C 225.775 109.856,226.000 109.738,226.000 109.653 C 226.000 109.569,226.087 109.500,226.194 109.500 C 226.392 109.500,226.558 109.366,227.379 108.546 C 228.200 107.725,228.333 107.559,228.333 107.361 C 228.333 107.254,228.408 107.167,228.500 107.167 C 228.592 107.167,228.667 107.073,228.668 106.958 C 228.668 106.844,228.790 106.525,228.938 106.250 C 229.254 105.665,229.338 102.494,229.047 102.134 C 228.951 102.014,228.820 101.673,228.756 101.375 C 228.692 101.077,228.577 100.833,228.500 100.833 C 228.423 100.833,228.312 100.615,228.253 100.347 C 228.194 100.080,228.038 99.820,227.906 99.769 C 227.775 99.719,227.667 99.562,227.667 99.422 C 227.667 99.282,227.604 99.167,227.528 99.167 C 227.452 99.167,227.283 98.961,227.153 98.710 C 227.023 98.458,226.748 98.093,226.542 97.899 C 226.335 97.704,226.167 97.477,226.167 97.393 C 226.167 97.309,226.035 97.117,225.875 96.965 C 225.486 96.598,225.300 96.362,224.752 95.533 C 224.497 95.148,224.224 94.833,224.145 94.833 C 224.065 94.833,224.000 94.718,224.000 94.578 C 224.000 94.438,223.890 94.281,223.756 94.229 C 223.622 94.178,223.464 93.981,223.404 93.792 C 223.343 93.603,223.116 93.282,222.897 93.080 C 222.679 92.877,222.500 92.656,222.500 92.588 C 222.500 92.465,221.884 91.648,221.416 91.153 C 221.279 91.007,221.167 90.833,221.167 90.765 C 221.167 90.697,220.946 90.421,220.677 90.152 C 220.408 89.882,220.143 89.520,220.087 89.346 C 220.032 89.173,219.878 88.989,219.744 88.937 C 219.610 88.886,219.500 88.756,219.500 88.649 C 219.500 88.542,219.321 88.289,219.103 88.087 C 218.884 87.884,218.654 87.557,218.592 87.359 C 218.529 87.162,218.406 87.000,218.318 87.000 C 218.230 87.000,218.087 86.813,218.000 86.583 C 217.913 86.354,217.770 86.167,217.682 86.167 C 217.594 86.167,217.479 86.035,217.426 85.875 C 217.338 85.608,216.714 84.805,216.087 84.153 C 215.947 84.007,215.833 83.801,215.833 83.694 C 215.833 83.587,215.777 83.498,215.708 83.496 C 215.640 83.494,215.358 83.157,215.083 82.747 C 214.808 82.336,214.527 82.001,214.458 82.000 C 214.390 82.000,214.333 81.885,214.333 81.745 C 214.333 81.604,214.224 81.447,214.090 81.396 C 213.956 81.345,213.797 81.149,213.737 80.961 C 213.678 80.772,213.412 80.407,213.148 80.148 C 212.883 79.890,212.667 79.598,212.667 79.500 C 212.667 79.403,212.557 79.281,212.423 79.229 C 212.289 79.178,212.133 78.989,212.076 78.809 C 212.019 78.630,211.751 78.243,211.481 77.950 C 211.211 77.657,210.890 77.304,210.766 77.167 C 210.643 77.029,210.492 76.755,210.431 76.557 C 210.371 76.359,210.211 76.155,210.077 76.104 C 209.943 76.053,209.833 75.923,209.833 75.816 C 209.833 75.709,209.646 75.448,209.417 75.235 C 209.188 75.023,209.000 74.768,209.000 74.669 C 209.000 74.570,208.890 74.447,208.756 74.396 C 208.622 74.345,208.463 74.141,208.402 73.943 C 208.341 73.745,208.190 73.471,208.067 73.333 C 207.944 73.196,207.622 72.843,207.352 72.550 C 207.082 72.257,206.815 71.870,206.758 71.691 C 206.701 71.511,206.544 71.322,206.410 71.271 C 206.276 71.219,206.167 71.069,206.167 70.936 C 206.167 70.803,206.108 70.669,206.036 70.639 C 205.328 70.339,205.203 69.000,205.884 69.000 C 205.942 69.000,207.153 67.837,208.575 66.417 C 209.998 64.996,211.211 63.833,211.271 63.833 C 211.331 63.833,212.504 62.708,213.877 61.333 C 215.250 59.958,216.430 58.833,216.499 58.833 C 216.568 58.833,217.793 57.671,219.221 56.250 C 220.649 54.829,221.865 53.667,221.923 53.667 C 221.981 53.667,223.165 52.548,224.556 51.181 C 228.364 47.437,228.333 47.469,228.333 47.194 C 228.333 47.087,228.405 47.000,228.492 47.000 C 228.580 47.000,228.701 46.737,228.761 46.415 C 228.822 46.093,228.938 45.789,229.019 45.738 C 229.215 45.617,229.211 42.833,229.015 42.833 C 228.931 42.833,228.812 42.533,228.750 42.167 C 228.688 41.800,228.569 41.500,228.485 41.500 C 228.402 41.500,228.333 41.387,228.333 41.248 C 228.333 41.110,228.183 40.868,228.000 40.711 C 227.817 40.554,227.667 40.360,227.667 40.280 C 227.667 40.073,226.570 39.000,226.358 39.000 C 226.262 39.000,226.117 38.882,226.037 38.738 C 225.956 38.594,225.577 38.434,225.195 38.383 C 224.813 38.331,224.500 38.224,224.500 38.145 C 224.500 38.065,223.900 38.000,223.167 38.000 C 222.389 38.000,221.833 38.069,221.833 38.167 M112.578 40.806 C 114.400 41.266,115.579 41.626,116.275 41.934 C 116.564 42.062,116.883 42.167,116.983 42.167 C 117.455 42.167,121.429 44.395,122.917 45.494 C 126.777 48.346,129.915 52.396,131.314 56.333 C 131.526 56.929,131.762 57.567,131.839 57.750 C 133.638 62.031,133.742 70.154,132.063 75.298 C 131.469 77.115,130.262 79.723,129.726 80.346 C 129.602 80.491,129.500 80.658,129.500 80.716 C 129.500 81.019,127.916 83.061,126.612 84.438 C 124.283 86.899,121.598 88.849,118.667 90.208 C 116.509 91.208,116.215 91.333,116.014 91.333 C 115.912 91.333,115.699 91.404,115.539 91.491 C 114.007 92.327,109.100 93.158,104.958 93.283 L 102.333 93.363 102.333 94.175 C 102.333 102.931,97.857 108.975,90.447 110.224 C 88.019 110.634,34.122 110.647,32.472 110.239 C 27.298 108.958,24.378 106.032,23.334 101.083 C 23.085 99.904,22.793 63.378,22.949 52.917 C 23.109 42.189,23.051 42.700,24.260 41.418 C 25.362 40.249,21.494 40.339,68.500 40.386 L 111.083 40.428 112.578 40.806 M102.667 66.804 L 102.667 79.643 103.619 79.762 C 107.753 80.278,111.799 79.390,114.542 77.364 C 119.887 73.415,121.212 64.060,117.197 58.624 C 114.699 55.244,112.146 54.154,106.458 54.040 L 102.667 53.964 102.667 66.804 M259.125 54.613 C 258.598 54.652,258.167 54.744,258.167 54.818 C 258.167 54.892,257.702 55.001,257.134 55.060 C 256.567 55.120,256.060 55.234,256.009 55.314 C 255.958 55.394,255.523 55.513,255.042 55.579 C 254.560 55.644,254.167 55.754,254.167 55.822 C 254.167 55.891,253.754 56.039,253.250 56.152 C 252.746 56.265,252.333 56.419,252.333 56.493 C 252.333 56.568,252.071 56.679,251.750 56.739 C 251.429 56.799,251.167 56.914,251.167 56.994 C 251.167 57.075,250.942 57.190,250.667 57.250 C 250.392 57.310,250.167 57.421,250.167 57.495 C 250.167 57.570,249.961 57.682,249.710 57.745 C 249.459 57.808,249.215 57.915,249.168 57.983 C 249.122 58.050,248.671 58.341,248.167 58.630 C 247.313 59.118,246.622 59.630,245.986 60.245 C 245.841 60.385,245.673 60.500,245.613 60.500 C 245.471 60.500,244.859 60.999,244.518 61.393 C 244.371 61.563,243.669 62.282,242.958 62.991 C 242.248 63.699,241.667 64.341,241.667 64.417 C 241.667 64.493,241.553 64.674,241.413 64.819 C 240.688 65.574,240.152 66.290,240.063 66.625 C 240.009 66.831,239.903 67.000,239.828 67.000 C 239.754 67.000,239.606 67.262,239.500 67.583 C 239.394 67.904,239.240 68.167,239.157 68.167 C 239.074 68.167,238.959 68.354,238.902 68.583 C 238.844 68.813,238.736 69.000,238.662 69.000 C 238.587 69.000,238.477 69.225,238.417 69.500 C 238.356 69.775,238.241 70.000,238.161 70.000 C 238.081 70.000,237.966 70.262,237.906 70.583 C 237.845 70.904,237.733 71.167,237.656 71.167 C 237.578 71.167,237.466 71.429,237.406 71.750 C 237.345 72.071,237.238 72.333,237.167 72.333 C 237.096 72.333,236.946 72.821,236.833 73.417 C 236.721 74.012,236.570 74.500,236.497 74.500 C 236.425 74.500,236.312 74.969,236.246 75.542 C 236.180 76.115,236.064 76.623,235.988 76.672 C 235.911 76.720,235.797 77.564,235.733 78.547 C 235.670 79.529,235.554 80.333,235.475 80.333 C 235.290 80.333,235.289 85.953,235.474 86.068 C 235.552 86.116,235.663 86.884,235.722 87.774 C 235.781 88.665,235.895 89.437,235.977 89.489 C 236.059 89.541,236.180 90.052,236.246 90.625 C 236.312 91.198,236.417 91.667,236.478 91.667 C 236.540 91.667,236.678 92.128,236.785 92.692 C 236.893 93.257,237.048 93.763,237.131 93.817 C 237.214 93.872,237.333 94.142,237.394 94.417 C 237.510 94.931,238.496 97.017,238.695 97.168 C 238.757 97.215,238.858 97.459,238.922 97.710 C 238.985 97.961,239.094 98.167,239.165 98.167 C 239.235 98.167,239.391 98.410,239.512 98.708 C 239.632 99.006,239.773 99.287,239.824 99.333 C 240.014 99.504,240.667 100.491,240.674 100.618 C 240.678 100.691,240.903 100.934,241.174 101.159 C 241.445 101.384,241.667 101.648,241.667 101.745 C 241.667 101.910,242.718 103.064,243.437 103.689 C 243.609 103.838,244.118 104.344,244.568 104.814 C 245.017 105.283,245.471 105.667,245.575 105.667 C 245.680 105.667,245.950 105.888,246.174 106.160 C 246.399 106.431,246.643 106.656,246.715 106.660 C 246.834 106.666,247.794 107.294,248.000 107.500 C 248.046 107.546,248.533 107.808,249.083 108.083 C 249.633 108.358,250.122 108.634,250.168 108.695 C 250.215 108.757,250.459 108.858,250.710 108.922 C 250.961 108.985,251.167 109.095,251.167 109.166 C 251.167 109.238,251.429 109.345,251.750 109.406 C 252.071 109.466,252.333 109.587,252.333 109.674 C 252.333 109.762,252.450 109.833,252.592 109.833 C 252.735 109.833,253.166 109.976,253.551 110.151 C 253.935 110.325,254.681 110.521,255.208 110.586 C 255.735 110.652,256.167 110.765,256.167 110.839 C 256.167 110.913,256.673 111.027,257.292 111.092 C 257.910 111.158,258.470 111.295,258.536 111.397 C 258.706 111.664,268.298 111.659,268.464 111.392 C 268.530 111.287,269.090 111.147,269.708 111.081 C 270.327 111.015,270.833 110.912,270.833 110.852 C 270.833 110.792,271.336 110.647,271.950 110.531 C 272.564 110.414,273.145 110.256,273.242 110.179 C 273.338 110.102,273.660 109.986,273.958 109.923 C 274.256 109.859,274.500 109.746,274.500 109.672 C 274.500 109.598,274.762 109.488,275.083 109.428 C 275.404 109.367,275.667 109.253,275.667 109.172 C 275.667 109.092,275.892 108.977,276.167 108.917 C 276.442 108.856,276.667 108.746,276.667 108.671 C 276.667 108.597,276.868 108.486,277.115 108.424 C 277.361 108.362,277.767 108.166,278.016 107.989 C 278.264 107.812,278.550 107.667,278.651 107.667 C 278.751 107.667,278.833 107.592,278.833 107.500 C 278.833 107.408,278.911 107.333,279.007 107.333 C 279.227 107.333,280.207 106.651,280.383 106.375 C 280.457 106.260,280.593 106.167,280.687 106.167 C 280.781 106.167,280.952 106.073,281.068 105.958 C 281.184 105.844,281.486 105.600,281.740 105.417 C 282.480 104.882,284.833 102.506,284.840 102.285 C 284.844 102.174,285.069 101.899,285.340 101.674 C 285.612 101.450,285.833 101.210,285.833 101.141 C 285.833 101.073,286.005 100.832,286.214 100.606 C 286.424 100.380,286.705 99.983,286.839 99.723 C 286.973 99.463,287.120 99.212,287.166 99.167 C 287.335 98.998,287.684 98.404,287.876 97.958 C 287.984 97.706,288.126 97.500,288.190 97.500 C 288.254 97.500,288.356 97.275,288.417 97.000 C 288.477 96.725,288.596 96.500,288.680 96.500 C 288.764 96.500,288.833 96.403,288.833 96.285 C 288.833 96.167,288.979 95.785,289.157 95.436 C 289.335 95.086,289.528 94.583,289.587 94.317 C 289.645 94.051,289.760 93.833,289.841 93.833 C 289.922 93.833,290.038 93.458,290.099 93.000 C 290.160 92.542,290.266 92.167,290.336 92.167 C 290.405 92.167,290.515 91.810,290.580 91.375 C 290.645 90.940,290.761 90.506,290.839 90.412 C 290.916 90.318,291.033 89.643,291.097 88.912 C 291.162 88.181,291.291 87.535,291.382 87.475 C 291.612 87.326,291.609 78.838,291.380 78.692 C 291.287 78.632,291.157 78.002,291.091 77.292 C 291.025 76.581,290.913 76.000,290.841 76.000 C 290.769 76.000,290.659 75.550,290.597 75.000 C 290.534 74.450,290.419 74.000,290.340 74.000 C 290.261 74.000,290.145 73.700,290.083 73.333 C 290.021 72.967,289.911 72.667,289.838 72.667 C 289.764 72.667,289.654 72.329,289.592 71.917 C 289.530 71.504,289.419 71.167,289.345 71.167 C 289.271 71.167,289.115 70.829,289.000 70.417 C 288.885 70.004,288.731 69.667,288.658 69.667 C 288.586 69.667,288.477 69.442,288.417 69.167 C 288.356 68.892,288.238 68.667,288.153 68.667 C 288.069 68.667,288.000 68.566,288.000 68.442 C 288.000 68.319,287.850 68.045,287.667 67.833 C 287.483 67.622,287.333 67.356,287.333 67.242 C 287.333 67.129,287.221 66.992,287.083 66.940 C 286.946 66.887,286.833 66.740,286.833 66.614 C 286.833 66.412,286.682 66.187,286.003 65.382 C 285.910 65.271,285.833 65.129,285.833 65.066 C 285.833 65.002,285.571 64.695,285.250 64.384 C 284.929 64.072,284.667 63.764,284.667 63.700 C 284.667 63.511,282.991 61.817,281.996 61.000 C 281.494 60.587,281.058 60.194,281.028 60.125 C 280.997 60.056,280.870 60.000,280.744 60.000 C 280.619 60.000,280.457 59.906,280.383 59.792 C 280.207 59.516,279.227 58.833,279.007 58.833 C 278.911 58.833,278.833 58.772,278.833 58.698 C 278.833 58.623,278.571 58.459,278.250 58.333 C 277.929 58.207,277.667 58.049,277.667 57.982 C 277.667 57.915,277.442 57.810,277.167 57.750 C 276.892 57.690,276.667 57.577,276.667 57.500 C 276.667 57.423,276.442 57.310,276.167 57.250 C 275.892 57.190,275.667 57.077,275.667 57.000 C 275.667 56.923,275.442 56.810,275.167 56.750 C 274.892 56.690,274.667 56.579,274.667 56.505 C 274.667 56.430,274.179 56.273,273.583 56.154 C 272.987 56.036,272.500 55.882,272.500 55.813 C 272.500 55.744,272.144 55.635,271.708 55.570 C 271.273 55.506,270.876 55.392,270.827 55.316 C 270.778 55.240,270.290 55.126,269.744 55.064 C 269.197 55.001,268.699 54.872,268.638 54.777 C 268.523 54.601,261.039 54.472,259.125 54.613 M388.417 55.613 C 388.143 55.659,387.880 55.747,387.834 55.808 C 387.788 55.869,387.464 56.018,387.114 56.141 C 386.421 56.383,384.752 57.964,384.569 58.552 C 384.506 58.753,384.391 58.958,384.312 59.009 C 384.233 59.060,384.120 59.567,384.060 60.134 C 384.001 60.702,383.888 61.167,383.810 61.167 C 383.731 61.167,383.667 71.011,383.667 83.083 C 383.667 95.156,383.731 105.000,383.810 105.000 C 383.888 105.000,384.001 105.465,384.060 106.032 C 384.120 106.600,384.224 107.106,384.293 107.157 C 384.361 107.208,384.530 107.470,384.667 107.739 C 385.001 108.394,386.396 109.778,386.870 109.926 C 387.079 109.992,387.297 110.118,387.354 110.206 C 387.888 111.036,393.825 110.503,393.832 109.625 C 393.833 109.556,393.923 109.500,394.032 109.500 C 394.263 109.500,395.833 107.827,395.833 107.581 C 395.833 107.526,395.984 107.150,396.169 106.745 C 396.575 105.854,396.626 59.617,396.222 59.367 C 396.114 59.301,395.975 59.041,395.912 58.790 C 395.849 58.539,395.730 58.333,395.649 58.333 C 395.567 58.333,395.500 58.248,395.500 58.144 C 395.500 57.820,393.862 56.326,393.293 56.131 C 392.994 56.029,392.703 55.874,392.645 55.787 C 392.530 55.614,389.221 55.477,388.417 55.613 M72.000 56.993 C 69.075 57.531,65.515 59.447,63.509 61.561 C 62.784 62.326,62.811 62.330,61.781 61.319 C 56.325 55.968,47.483 55.556,42.745 60.432 C 38.944 64.344,39.454 72.716,43.815 78.000 C 45.296 79.796,50.454 84.968,53.667 87.880 C 54.079 88.254,55.138 89.240,56.019 90.071 C 57.420 91.393,58.485 92.383,61.515 95.180 C 62.577 96.161,63.132 96.102,64.417 94.871 C 64.967 94.344,66.542 92.863,67.917 91.581 C 76.085 83.966,82.277 77.369,83.649 74.820 C 87.144 68.330,85.370 61.243,79.500 58.243 C 77.319 57.129,74.140 56.599,72.000 56.993 M264.167 66.143 C 264.167 66.221,264.858 66.338,265.704 66.402 C 266.549 66.465,267.281 66.579,267.329 66.655 C 267.377 66.730,267.679 66.848,268.000 66.917 C 268.321 66.986,268.731 67.146,268.912 67.271 C 269.093 67.397,269.412 67.500,269.620 67.500 C 269.829 67.500,270.000 67.570,270.000 67.656 C 270.000 67.742,270.262 67.907,270.583 68.023 C 270.904 68.139,271.167 68.294,271.167 68.367 C 271.167 68.440,271.282 68.500,271.422 68.500 C 271.562 68.500,271.719 68.610,271.771 68.744 C 271.822 68.878,271.997 69.029,272.159 69.081 C 272.768 69.274,275.667 72.366,275.667 72.822 C 275.667 72.920,275.740 73.000,275.830 73.000 C 275.920 73.000,276.041 73.188,276.098 73.417 C 276.156 73.646,276.270 73.833,276.351 73.833 C 276.433 73.833,276.500 73.948,276.500 74.089 C 276.500 74.229,276.608 74.385,276.740 74.436 C 276.872 74.486,277.032 74.764,277.095 75.053 C 277.158 75.342,277.306 75.730,277.423 75.914 C 277.539 76.099,277.686 76.569,277.749 76.958 C 277.811 77.348,277.924 77.667,277.998 77.667 C 278.073 77.667,278.188 78.135,278.254 78.708 C 278.320 79.281,278.456 79.802,278.556 79.866 C 278.814 80.028,278.800 86.481,278.542 86.641 C 278.439 86.704,278.303 87.149,278.239 87.628 C 278.176 88.108,278.068 88.500,278.000 88.500 C 277.932 88.500,277.825 88.819,277.763 89.208 C 277.701 89.598,277.553 90.067,277.435 90.250 C 277.316 90.433,277.167 90.796,277.103 91.056 C 276.995 91.494,276.894 91.661,276.397 92.222 C 276.294 92.338,276.158 92.597,276.094 92.799 C 276.030 93.001,275.908 93.167,275.822 93.167 C 275.737 93.167,275.667 93.247,275.667 93.344 C 275.667 93.798,273.562 96.074,272.429 96.846 C 272.103 97.068,271.835 97.306,271.834 97.375 C 271.834 97.444,271.718 97.500,271.578 97.500 C 271.438 97.500,271.281 97.608,271.231 97.740 C 271.180 97.872,270.920 98.028,270.653 98.086 C 270.385 98.145,270.167 98.252,270.167 98.325 C 270.167 98.397,269.827 98.552,269.412 98.668 C 268.998 98.784,268.622 98.937,268.578 99.008 C 268.534 99.079,268.180 99.191,267.791 99.256 C 267.402 99.321,267.030 99.459,266.964 99.562 C 266.799 99.823,260.203 99.825,260.036 99.565 C 259.970 99.463,259.560 99.327,259.125 99.263 C 258.690 99.199,258.333 99.086,258.333 99.011 C 258.333 98.937,257.996 98.782,257.583 98.667 C 257.171 98.551,256.833 98.400,256.833 98.330 C 256.833 98.260,256.639 98.154,256.402 98.095 C 255.997 97.993,255.824 97.884,255.256 97.375 C 255.128 97.260,254.960 97.167,254.882 97.167 C 254.804 97.167,254.624 97.035,254.481 96.875 C 254.141 96.492,253.293 95.833,253.142 95.833 C 253.076 95.833,252.978 95.694,252.924 95.524 C 252.870 95.354,252.600 94.998,252.323 94.733 C 251.780 94.212,250.667 92.597,250.667 92.330 C 250.667 92.240,250.598 92.167,250.513 92.167 C 250.429 92.167,250.310 91.942,250.250 91.667 C 250.190 91.392,250.077 91.167,250.000 91.167 C 249.923 91.167,249.810 90.942,249.750 90.667 C 249.690 90.392,249.579 90.167,249.505 90.167 C 249.431 90.167,249.318 89.886,249.253 89.542 C 249.189 89.199,249.073 88.879,248.996 88.831 C 248.920 88.784,248.771 88.071,248.666 87.247 C 248.562 86.424,248.406 85.620,248.321 85.461 C 248.135 85.111,248.112 80.833,248.297 80.833 C 248.368 80.833,248.518 80.069,248.630 79.135 C 248.742 78.201,248.901 77.394,248.985 77.343 C 249.068 77.291,249.189 76.968,249.253 76.625 C 249.318 76.281,249.431 76.000,249.505 76.000 C 249.579 76.000,249.690 75.775,249.750 75.500 C 249.810 75.225,249.923 75.000,250.000 75.000 C 250.077 75.000,250.190 74.775,250.250 74.500 C 250.310 74.225,250.429 74.000,250.513 74.000 C 250.598 74.000,250.667 73.923,250.667 73.830 C 250.667 73.614,251.465 72.381,251.958 71.835 C 252.165 71.607,252.333 71.371,252.333 71.312 C 252.333 71.108,253.824 69.692,254.146 69.590 C 254.324 69.533,254.511 69.378,254.563 69.244 C 254.614 69.110,254.739 69.000,254.840 69.000 C 254.941 69.000,255.128 68.906,255.256 68.792 C 255.783 68.320,255.963 68.209,256.918 67.775 C 257.467 67.525,258.039 67.253,258.188 67.172 C 258.337 67.090,258.749 66.969,259.104 66.904 C 259.460 66.839,259.797 66.713,259.854 66.626 C 259.911 66.538,260.607 66.425,261.400 66.376 C 262.194 66.326,262.883 66.221,262.931 66.143 C 263.046 65.957,264.167 65.957,264.167 66.143 M303.875 72.949 C 303.669 72.990,303.500 73.085,303.500 73.160 C 303.500 73.236,303.331 73.340,303.125 73.393 C 302.919 73.446,302.547 73.679,302.299 73.911 C 302.051 74.143,301.772 74.333,301.680 74.333 C 301.587 74.333,301.422 74.501,301.313 74.705 C 301.204 74.909,301.013 75.177,300.890 75.300 C 300.767 75.423,300.667 75.631,300.667 75.762 C 300.667 75.893,300.595 76.000,300.508 76.000 C 300.420 76.000,300.299 76.262,300.239 76.583 C 300.179 76.904,300.063 77.167,299.981 77.167 C 299.900 77.167,299.833 78.029,299.833 79.083 C 299.833 80.250,299.899 81.000,300.000 81.000 C 300.092 81.000,300.167 81.182,300.167 81.405 C 300.167 81.627,300.279 81.922,300.417 82.060 C 300.554 82.197,300.667 82.379,300.667 82.465 C 300.667 82.804,302.139 84.159,303.083 84.689 L 304.083 85.250 315.298 85.250 C 323.364 85.250,326.546 85.198,326.631 85.064 C 326.696 84.962,326.938 84.821,327.167 84.751 C 328.276 84.411,330.000 82.630,330.000 81.824 C 330.000 81.661,330.094 81.496,330.208 81.458 C 330.494 81.363,330.506 76.877,330.222 76.701 C 330.114 76.634,329.973 76.368,329.908 76.110 C 329.844 75.851,329.688 75.600,329.562 75.552 C 329.436 75.504,329.333 75.389,329.333 75.296 C 329.333 75.066,328.085 73.833,327.853 73.833 C 327.750 73.833,327.667 73.766,327.667 73.685 C 327.667 73.603,327.461 73.485,327.210 73.422 C 326.959 73.358,326.699 73.219,326.633 73.112 C 326.515 72.920,304.801 72.765,303.875 72.949 " stroke="none" fill="#31A3FF" fill-rule="evenodd"></path><path id="path2" d="M108.208 40.448 C 108.369 40.490,108.631 40.490,108.792 40.448 C 108.952 40.406,108.821 40.372,108.500 40.372 C 108.179 40.372,108.048 40.406,108.208 40.448 M109.627 40.618 C 109.834 40.658,110.134 40.656,110.294 40.615 C 110.453 40.573,110.283 40.540,109.917 40.542 C 109.550 40.544,109.420 40.578,109.627 40.618 M126.083 48.500 C 126.441 48.867,126.772 49.167,126.818 49.167 C 126.863 49.167,126.608 48.867,126.250 48.500 C 125.892 48.133,125.562 47.833,125.516 47.833 C 125.470 47.833,125.725 48.133,126.083 48.500 M102.533 53.867 C 102.244 54.156,102.244 79.510,102.533 79.800 C 102.645 79.911,103.106 79.988,103.575 79.973 L 104.417 79.946 103.500 79.848 L 102.583 79.750 102.583 66.833 L 102.583 53.917 105.417 53.827 L 108.250 53.738 105.492 53.702 C 103.527 53.677,102.676 53.724,102.533 53.867 M23.078 65.750 C 23.078 70.883,23.099 73.007,23.125 70.470 C 23.151 67.933,23.151 63.733,23.125 61.137 C 23.099 58.541,23.078 60.617,23.078 65.750 M116.160 57.208 C 116.850 57.944,117.000 58.077,117.000 57.951 C 117.000 57.925,116.644 57.568,116.208 57.160 L 115.417 56.417 116.160 57.208 M73.048 56.790 C 73.578 56.823,74.403 56.823,74.881 56.789 C 75.359 56.756,74.925 56.729,73.917 56.729 C 72.908 56.729,72.517 56.757,73.048 56.790 M61.786 61.166 C 62.264 61.662,62.679 62.034,62.710 61.992 C 62.740 61.951,62.349 61.545,61.841 61.091 L 60.917 60.265 61.786 61.166 M119.542 64.250 C 119.544 64.617,119.578 64.747,119.618 64.540 C 119.658 64.332,119.656 64.032,119.615 63.873 C 119.573 63.714,119.540 63.883,119.542 64.250 M133.052 65.083 C 133.053 65.633,133.084 65.838,133.121 65.539 C 133.158 65.239,133.157 64.789,133.119 64.539 C 133.081 64.288,133.051 64.533,133.052 65.083 M40.042 66.083 C 40.044 66.450,40.078 66.580,40.118 66.373 C 40.158 66.166,40.156 65.866,40.115 65.706 C 40.073 65.547,40.040 65.717,40.042 66.083 M85.548 68.083 C 85.549 68.542,85.581 68.709,85.620 68.456 C 85.658 68.203,85.657 67.828,85.617 67.623 C 85.578 67.418,85.546 67.625,85.548 68.083 M119.545 68.000 C 119.545 68.412,119.578 68.581,119.618 68.375 C 119.657 68.169,119.657 67.831,119.618 67.625 C 119.578 67.419,119.545 67.587,119.545 68.000 M133.050 69.167 C 133.050 69.671,133.081 69.877,133.119 69.625 C 133.158 69.373,133.158 68.960,133.119 68.708 C 133.081 68.456,133.050 68.662,133.050 69.167 M40.042 69.417 C 40.044 69.783,40.078 69.914,40.118 69.706 C 40.158 69.499,40.156 69.199,40.115 69.040 C 40.073 68.880,40.040 69.050,40.042 69.417 M115.910 76.375 L 115.083 77.250 115.958 76.423 C 116.771 75.654,116.910 75.500,116.785 75.500 C 116.759 75.500,116.365 75.894,115.910 76.375 M43.667 78.219 C 43.667 78.248,43.910 78.491,44.208 78.760 L 44.750 79.250 44.260 78.708 C 43.804 78.203,43.667 78.090,43.667 78.219 M79.329 80.458 L 78.250 81.583 79.375 80.505 C 79.994 79.912,80.500 79.405,80.500 79.380 C 80.500 79.257,80.330 79.413,79.329 80.458 M108.000 79.833 L 106.917 79.942 107.833 79.959 C 108.337 79.968,109.087 79.915,109.500 79.842 C 110.460 79.671,109.656 79.666,108.000 79.833 M47.833 82.583 C 49.344 84.096,50.617 85.333,50.663 85.333 C 50.709 85.333,49.510 84.096,48.000 82.583 C 46.490 81.071,45.216 79.833,45.170 79.833 C 45.125 79.833,46.323 81.071,47.833 82.583 M52.333 86.917 C 52.644 87.237,52.936 87.500,52.982 87.500 C 53.028 87.500,52.811 87.237,52.500 86.917 C 52.189 86.596,51.897 86.333,51.851 86.333 C 51.805 86.333,52.022 86.596,52.333 86.917 M70.580 89.208 L 69.083 90.750 70.625 89.253 C 72.057 87.864,72.243 87.667,72.122 87.667 C 72.097 87.667,71.403 88.360,70.580 89.208 M55.083 89.500 C 55.441 89.867,55.772 90.167,55.818 90.167 C 55.863 90.167,55.608 89.867,55.250 89.500 C 54.892 89.133,54.562 88.833,54.516 88.833 C 54.470 88.833,54.725 89.133,55.083 89.500 M57.167 91.385 C 57.167 91.414,57.410 91.658,57.708 91.927 L 58.250 92.417 57.760 91.875 C 57.304 91.370,57.167 91.257,57.167 91.385 M67.242 92.375 L 66.583 93.083 67.292 92.425 C 67.950 91.812,68.077 91.667,67.950 91.667 C 67.923 91.667,67.605 91.985,67.242 92.375 M59.000 93.052 C 59.000 93.081,59.244 93.325,59.542 93.594 L 60.083 94.083 59.594 93.542 C 59.138 93.037,59.000 92.923,59.000 93.052 M106.375 93.115 C 106.535 93.157,106.798 93.157,106.958 93.115 C 107.119 93.073,106.987 93.039,106.667 93.039 C 106.346 93.039,106.215 93.073,106.375 93.115 M64.500 94.917 C 64.095 95.329,63.801 95.667,63.847 95.667 C 63.893 95.667,64.262 95.329,64.667 94.917 C 65.072 94.504,65.365 94.167,65.319 94.167 C 65.274 94.167,64.905 94.504,64.500 94.917 M101.872 97.333 C 101.872 97.654,101.906 97.785,101.948 97.625 C 101.990 97.465,101.990 97.202,101.948 97.042 C 101.906 96.881,101.872 97.013,101.872 97.333 M23.225 98.500 C 23.225 99.279,23.254 99.598,23.289 99.208 C 23.324 98.819,23.324 98.181,23.289 97.792 C 23.254 97.402,23.225 97.721,23.225 98.500 M98.406 105.708 L 97.917 106.250 98.458 105.760 C 98.756 105.491,99.000 105.248,99.000 105.219 C 99.000 105.090,98.862 105.203,98.406 105.708 M26.333 106.917 C 26.644 107.237,26.936 107.500,26.982 107.500 C 27.028 107.500,26.811 107.237,26.500 106.917 C 26.189 106.596,25.897 106.333,25.851 106.333 C 25.805 106.333,26.022 106.596,26.333 106.917 M31.917 110.000 C 32.100 110.079,32.362 110.143,32.500 110.143 C 32.658 110.143,32.627 110.090,32.417 110.000 C 32.233 109.921,31.971 109.857,31.833 109.857 C 31.676 109.857,31.707 109.910,31.917 110.000 M83.718 110.291 C 84.800 110.320,86.525 110.320,87.551 110.291 C 88.577 110.262,87.692 110.238,85.583 110.238 C 83.475 110.238,82.635 110.262,83.718 110.291 M38.697 110.458 C 41.142 110.484,45.192 110.484,47.697 110.458 C 50.201 110.432,48.200 110.411,43.250 110.411 C 38.300 110.411,36.251 110.432,38.697 110.458 " stroke="none" fill="#848484" fill-rule="evenodd"></path><path id="path3" d="M23.076 50.083 C 23.076 53.567,23.098 55.015,23.125 53.303 C 23.152 51.590,23.152 48.740,23.125 46.969 C 23.098 45.199,23.076 46.600,23.076 50.083 M102.577 54.042 C 102.533 54.156,102.517 59.987,102.540 67.000 L 102.583 79.750 103.044 79.770 C 103.465 79.789,103.469 79.784,103.085 79.718 L 102.667 79.645 102.667 66.826 L 102.667 54.007 105.958 53.958 L 109.250 53.909 105.953 53.871 C 103.441 53.842,102.637 53.883,102.577 54.042 M22.911 65.833 C 22.911 71.012,22.932 73.131,22.958 70.542 C 22.984 67.952,22.984 63.715,22.958 61.125 C 22.932 58.535,22.911 60.654,22.911 65.833 M115.993 57.208 C 116.402 57.644,116.758 58.000,116.785 58.000 C 116.910 58.000,116.778 57.850,116.042 57.160 L 115.250 56.417 115.993 57.208 M63.658 61.267 C 63.342 61.597,62.933 61.929,62.750 62.006 C 62.519 62.103,62.495 62.149,62.674 62.156 C 62.815 62.162,63.262 61.829,63.667 61.417 C 64.072 61.004,64.364 60.667,64.317 60.667 C 64.270 60.667,63.974 60.937,63.658 61.267 M119.023 62.333 C 119.023 62.471,119.088 62.733,119.167 62.917 C 119.257 63.127,119.310 63.158,119.310 63.000 C 119.310 62.862,119.245 62.600,119.167 62.417 C 119.076 62.207,119.023 62.176,119.023 62.333 M133.205 65.500 C 133.205 65.821,133.240 65.952,133.282 65.792 C 133.323 65.631,133.323 65.369,133.282 65.208 C 133.240 65.048,133.205 65.179,133.205 65.500 M85.195 65.750 C 85.192 65.933,85.255 66.233,85.333 66.417 C 85.516 66.841,85.516 66.403,85.333 65.833 C 85.226 65.498,85.199 65.482,85.195 65.750 M85.259 69.926 C 85.197 70.260,85.179 70.567,85.219 70.608 C 85.260 70.649,85.345 70.409,85.407 70.074 C 85.470 69.740,85.488 69.433,85.447 69.392 C 85.407 69.351,85.322 69.591,85.259 69.926 M119.104 69.854 C 118.965 70.549,119.100 70.684,119.250 70.000 C 119.313 69.712,119.330 69.441,119.288 69.399 C 119.245 69.357,119.163 69.561,119.104 69.854 M40.357 70.833 C 40.357 70.971,40.421 71.233,40.500 71.417 C 40.590 71.627,40.643 71.658,40.643 71.500 C 40.643 71.362,40.579 71.100,40.500 70.917 C 40.410 70.707,40.357 70.676,40.357 70.833 M84.685 72.352 C 84.583 72.646,84.528 72.917,84.563 72.952 C 84.599 72.988,84.712 72.776,84.815 72.481 C 84.917 72.187,84.972 71.917,84.937 71.881 C 84.901 71.845,84.788 72.057,84.685 72.352 M23.077 83.000 C 23.077 87.263,23.098 89.006,23.125 86.875 C 23.151 84.744,23.151 81.256,23.125 79.125 C 23.098 76.994,23.077 78.737,23.077 83.000 M115.833 76.250 C 115.428 76.662,115.135 77.000,115.181 77.000 C 115.226 77.000,115.595 76.662,116.000 76.250 C 116.405 75.837,116.699 75.500,116.653 75.500 C 116.607 75.500,116.238 75.837,115.833 76.250 M81.073 78.375 L 80.583 78.917 81.125 78.427 C 81.423 78.158,81.667 77.914,81.667 77.885 C 81.667 77.757,81.529 77.870,81.073 78.375 M79.573 80.042 L 79.083 80.583 79.625 80.094 C 80.130 79.638,80.243 79.500,80.115 79.500 C 80.086 79.500,79.842 79.744,79.573 80.042 M45.826 80.375 C 46.517 81.111,46.667 81.243,46.667 81.118 C 46.667 81.091,46.310 80.735,45.875 80.326 L 45.083 79.583 45.826 80.375 M108.042 79.782 C 108.202 79.823,108.465 79.823,108.625 79.782 C 108.785 79.740,108.654 79.705,108.333 79.705 C 108.013 79.705,107.881 79.740,108.042 79.782 M105.121 79.954 C 105.417 79.990,105.942 79.991,106.288 79.955 C 106.634 79.919,106.392 79.889,105.750 79.888 C 105.108 79.887,104.825 79.917,105.121 79.954 M49.167 83.750 C 49.942 84.529,50.613 85.167,50.659 85.167 C 50.705 85.167,50.108 84.529,49.333 83.750 C 48.558 82.971,47.887 82.333,47.841 82.333 C 47.795 82.333,48.392 82.971,49.167 83.750 M124.906 86.042 L 124.417 86.583 124.958 86.094 C 125.256 85.825,125.500 85.581,125.500 85.552 C 125.500 85.423,125.362 85.537,124.906 86.042 M53.333 87.750 C 53.644 88.071,53.936 88.333,53.982 88.333 C 54.028 88.333,53.811 88.071,53.500 87.750 C 53.189 87.429,52.897 87.167,52.851 87.167 C 52.805 87.167,53.022 87.429,53.333 87.750 M55.083 89.333 C 55.628 89.883,56.110 90.333,56.156 90.333 C 56.202 90.333,55.794 89.883,55.250 89.333 C 54.706 88.783,54.223 88.333,54.177 88.333 C 54.131 88.333,54.539 88.783,55.083 89.333 M69.575 90.042 L 68.917 90.750 69.625 90.091 C 70.015 89.729,70.333 89.410,70.333 89.383 C 70.333 89.257,70.188 89.383,69.575 90.042 M57.870 91.922 C 58.119 92.184,58.353 92.365,58.390 92.324 C 58.426 92.284,58.222 92.069,57.936 91.848 L 57.417 91.445 57.870 91.922 M66.911 92.542 L 65.917 93.583 66.958 92.589 C 67.926 91.664,68.076 91.500,67.953 91.500 C 67.927 91.500,67.459 91.969,66.911 92.542 M110.750 92.667 C 110.540 92.757,110.509 92.810,110.667 92.810 C 110.804 92.810,111.067 92.745,111.250 92.667 C 111.460 92.576,111.491 92.523,111.333 92.523 C 111.196 92.523,110.933 92.588,110.750 92.667 M102.200 94.458 L 102.233 95.750 102.290 94.546 L 102.348 93.342 104.799 93.291 L 107.250 93.240 104.708 93.204 L 102.167 93.167 102.200 94.458 M59.833 93.719 C 59.833 93.748,60.077 93.991,60.375 94.260 L 60.917 94.750 60.427 94.208 C 59.971 93.703,59.833 93.590,59.833 93.719 M64.573 94.708 L 64.083 95.250 64.625 94.760 C 65.130 94.304,65.243 94.167,65.115 94.167 C 65.086 94.167,64.842 94.410,64.573 94.708 M101.750 98.667 C 101.687 98.955,101.670 99.225,101.712 99.268 C 101.755 99.310,101.837 99.105,101.896 98.813 C 101.954 98.520,101.971 98.249,101.934 98.211 C 101.896 98.174,101.813 98.379,101.750 98.667 M33.375 110.448 C 33.535 110.490,33.798 110.490,33.958 110.448 C 34.119 110.406,33.987 110.372,33.667 110.372 C 33.346 110.372,33.215 110.406,33.375 110.448 M61.721 110.458 C 66.839 110.483,75.164 110.483,80.221 110.458 C 85.279 110.434,81.092 110.414,70.917 110.414 C 60.742 110.414,56.604 110.434,61.721 110.458 " stroke="none" fill="#525252" fill-rule="evenodd"></path><path id="path4" d="M50.875 56.953 C 51.127 56.991,51.540 56.991,51.792 56.953 C 52.044 56.915,51.837 56.883,51.333 56.883 C 50.829 56.883,50.623 56.915,50.875 56.953 M82.333 60.250 C 82.644 60.571,82.936 60.833,82.982 60.833 C 83.028 60.833,82.811 60.571,82.500 60.250 C 82.189 59.929,81.897 59.667,81.851 59.667 C 81.805 59.667,82.022 59.929,82.333 60.250 M119.557 66.083 C 119.558 66.817,119.587 67.096,119.622 66.704 C 119.657 66.312,119.657 65.712,119.621 65.371 C 119.585 65.029,119.557 65.350,119.557 66.083 M133.223 67.167 C 133.223 67.854,133.252 68.135,133.288 67.792 C 133.324 67.448,133.324 66.885,133.288 66.542 C 133.252 66.198,133.223 66.479,133.223 67.167 M40.055 67.750 C 40.055 68.392,40.086 68.634,40.122 68.288 C 40.158 67.942,40.157 67.417,40.120 67.121 C 40.083 66.825,40.054 67.108,40.055 67.750 M75.165 84.625 L 72.083 87.750 75.208 84.668 C 78.112 81.805,78.409 81.500,78.290 81.500 C 78.266 81.500,76.860 82.906,75.165 84.625 M60.833 94.719 C 60.833 94.748,61.077 94.991,61.375 95.260 L 61.917 95.750 61.427 95.208 C 60.971 94.703,60.833 94.590,60.833 94.719 " stroke="none" fill="#7c7c7c" fill-rule="evenodd"></path></g></svg>